<svg xmlns="http://www.w3.org/2000/svg" xmlns:xlink="http://www.w3.org/1999/xlink" width="512" zoomAndPan="magnify" viewBox="0 0 384 383.999986" height="512" preserveAspectRatio="xMidYMid meet" version="1.0"><defs><clipPath id="672dc0ea80"><path d="M 20.464844 16 L 193 16 L 193 340 L 20.464844 340 Z M 20.464844 16 " clip-rule="nonzero"/></clipPath><clipPath id="0f3a74c6c8"><path d="M 140 41 L 363.214844 41 L 363.214844 360 L 140 360 Z M 140 41 " clip-rule="nonzero"/></clipPath><clipPath id="9b0226d3f0"><path d="M 106.808594 6.824219 L 297.910156 6.824219 L 297.910156 377.171875 L 106.808594 377.171875 Z M 106.808594 6.824219 " clip-rule="nonzero"/></clipPath></defs><g clip-path="url(#672dc0ea80)"><path fill="#000000" d="M 122.328125 315.394531 C 77.386719 290.699219 46.859375 242.902344 46.859375 188.101562 C 46.859375 112.339844 105.210938 49.964844 179.332031 43.523438 L 192.125 16.574219 C 192.078125 16.574219 192.039062 16.570312 192 16.570312 C 146.179688 16.570312 103.105469 34.414062 70.707031 66.808594 C 38.308594 99.210938 20.464844 142.28125 20.464844 188.101562 C 20.464844 233.921875 38.308594 277 70.707031 309.394531 C 82.972656 321.664062 96.769531 331.839844 111.667969 339.753906 L 122.328125 315.394531 " fill-opacity="1" fill-rule="nonzero"/></g><g clip-path="url(#0f3a74c6c8)"><path fill="#000000" d="M 313.292969 66.808594 C 303.292969 56.816406 292.28125 48.210938 280.484375 41.082031 L 268.421875 64.765625 C 309.640625 90.398438 337.140625 136.09375 337.140625 188.101562 C 337.140625 268.132812 272.03125 333.242188 192 333.242188 C 180.179688 333.242188 168.695312 331.8125 157.691406 329.136719 L 140.109375 351.671875 C 156.675781 356.910156 174.128906 359.636719 192 359.636719 C 237.820312 359.636719 280.894531 341.796875 313.292969 309.394531 C 345.6875 277 363.53125 233.921875 363.53125 188.101562 C 363.53125 142.28125 345.6875 99.210938 313.292969 66.808594 " fill-opacity="1" fill-rule="nonzero"/></g><g clip-path="url(#9b0226d3f0)"><path fill="#000000" d="M 222.003906 132.648438 L 286.007812 6.972656 L 208.597656 6.820312 L 121.335938 189.476562 L 189.152344 189 L 106.820312 377.171875 L 297.84375 132.34375 L 222.003906 132.648438 " fill-opacity="1" fill-rule="nonzero"/></g></svg>